<svg width="1200" height="500" xmlns="http://www.w3.org/2000/svg">
  <defs>
    <linearGradient id="heroGrad" x1="0%" y1="0%" x2="100%" y2="100%">
      <stop offset="0%" style="stop-color:#ec4899;stop-opacity:1" />
      <stop offset="100%" style="stop-color:#be185d;stop-opacity:1" />
    </linearGradient>
  </defs>
  <rect width="1200" height="500" fill="url(#heroGrad)"/>
  <text x="600" y="200" font-family="Arial, sans-serif" font-size="72" fill="white" text-anchor="middle" font-weight="bold">TRIATHLON</text>
  <text x="600" y="280" font-family="Arial, sans-serif" font-size="48" fill="white" text-anchor="middle" font-weight="bold">COACHING</text>
  <g transform="translate(350, 320)">
    <circle cx="50" cy="40" r="30" fill="white" opacity="0.9"/>
    <circle cx="50" cy="50" r="20" fill="none" stroke="white" stroke-width="3"/>
    <line x1="50" y1="70" x2="50" y2="100" stroke="white" stroke-width="4"/>
    <line x1="50" y1="100" x2="30" y2="130" stroke="white" stroke-width="4"/>
    <line x1="50" y1="100" x2="70" y2="130" stroke="white" stroke-width="4"/>
  </g>
  <g transform="translate(550, 340)">
    <circle cx="30" cy="30" r="15" fill="white" opacity="0.9"/>
    <circle cx="70" cy="30" r="15" fill="white" opacity="0.9"/>
    <rect x="20" y="45" width="60" height="25" rx="5" fill="white" opacity="0.9"/>
    <line x1="40" y1="45" x2="60" y2="45" stroke="#ec4899" stroke-width="2"/>
  </g>
  <g transform="translate(700, 340)">
    <ellipse cx="40" cy="50" rx="25" ry="15" fill="white" opacity="0.9"/>
    <line x1="20" y1="50" x2="40" y2="30" stroke="white" stroke-width="3"/>
    <line x1="40" y1="30" x2="50" y2="50" stroke="white" stroke-width="3"/>
    <line x1="50" y1="50" x2="60" y2="70" stroke="white" stroke-width="3"/>
  </g>
</svg>
